<?xml version="1.0" encoding="UTF-8"?>
<svg id="Layer_2" data-name="Layer 2" xmlns="http://www.w3.org/2000/svg" xmlns:xlink="http://www.w3.org/1999/xlink" viewBox="0 0 429.28 339.25">
  <defs>
    <style>
      .cls-1 {
        fill: #dbf1fe;
      }

      .cls-1, .cls-2, .cls-3, .cls-4, .cls-5, .cls-6, .cls-7, .cls-8, .cls-9, .cls-10, .cls-11, .cls-12, .cls-13, .cls-14 {
        stroke-width: 0px;
      }

      .cls-15 {
        clip-path: url(#clippath);
      }

      .cls-2 {
        fill: none;
      }

      .cls-3 {
        fill: #051445;
      }

      .cls-4 {
        fill: #303449;
      }

      .cls-5 {
        fill: #05609a;
      }

      .cls-6 {
        fill: #ff6110;
      }

      .cls-7 {
        fill: #ecf0fb;
      }

      .cls-8 {
        fill: #ffd36b;
      }

      .cls-9 {
        fill: #bdd2ff;
      }

      .cls-10 {
        fill: #0496be;
      }

      .cls-11 {
        fill: #feb313;
      }

      .cls-12 {
        fill: #a4d9f7;
      }

      .cls-13 {
        fill: #fff;
      }

      .cls-14 {
        fill: #02cdcd;
      }
    </style>
    <clipPath id="clippath">
      <rect class="cls-2" x="282.3" y="190.92" width="109.95" height="83.86"/>
    </clipPath>
  </defs>
  <g id="OBJECTS">
    <g>
      <path class="cls-1" d="M196.8,298.92H39.07c-21.83,0-54.17-31.74-31.15-64.17,23.02-32.43,52.19-50.33,43.64-90.15-8.55-39.82-24.93-79.62,2.11-108,35.28-37.04,125.49,16.95,165.24-2.38,39.76-19.33,111.35-51.61,154.1-22.67,42.75,28.94,14,122.53,22.56,146.61,8.55,24.08,25.71,23.61,32.42,62.64,6.4,37.26-11.37,74.77-40.97,74.77-24.34,0-190.22,3.35-190.22,3.35Z"/>
      <path class="cls-12" d="M194.65,298.92H40.48c-13.5,0-47.57-32.5-25.07-64.19s45.64-47.72,37.29-86.63c-8.36-38.92-20.78-72.69,5.64-100.43,34.48-36.2,121.72,5.45,160.58-13.45,38.86-18.9,106.17-44.45,147.96-16.16,41.79,28.29,13.69,119.75,22.04,143.29,8.36,23.54,25.13,23.08,31.68,61.22,6.26,36.42-11.11,73.08-40.04,73.08-23.79,0-185.91,3.28-185.91,3.28Z"/>
      <g>
        <circle class="cls-6" cx="313.52" cy="152.19" r="22.65" transform="translate(113.4 437.51) rotate(-80.85)"/>
        <circle class="cls-8" cx="313.52" cy="152.19" r="19.84" transform="translate(-15.78 266.27) rotate(-45)"/>
        <path class="cls-6" d="M312.31,167.04v-3.6c-2.07-.04-4.21-.68-5.45-1.57l.86-2.39c1.28.86,3.14,1.53,5.13,1.53,2.53,0,4.24-1.46,4.24-3.49s-1.39-3.17-4.03-4.24c-3.64-1.43-5.88-3.07-5.88-6.17s2.1-5.21,5.38-5.74v-3.6h2.21v3.46c2.14.07,3.6.64,4.63,1.25l-.89,2.35c-.75-.43-2.21-1.21-4.49-1.21-2.74,0-3.78,1.64-3.78,3.07,0,1.85,1.32,2.78,4.42,4.06,3.67,1.5,5.53,3.35,5.53,6.52,0,2.82-1.96,5.45-5.63,6.06v3.71h-2.25Z"/>
      </g>
      <g>
        <circle class="cls-6" cx="346.89" cy="113.19" r="19.44" transform="translate(110.24 390.94) rotate(-67.64)"/>
        <circle class="cls-8" cx="346.89" cy="113.19" r="17.03" transform="translate(21.56 278.44) rotate(-45)"/>
        <path class="cls-6" d="M345.85,125.94v-3.09c-1.77-.03-3.61-.58-4.68-1.35l.73-2.05c1.1.73,2.69,1.32,4.41,1.32,2.17,0,3.64-1.25,3.64-3s-1.19-2.72-3.46-3.64c-3.12-1.22-5.05-2.63-5.05-5.29s1.81-4.47,4.62-4.93v-3.09h1.9v2.97c1.84.06,3.09.55,3.98,1.07l-.76,2.02c-.64-.37-1.9-1.04-3.86-1.04-2.36,0-3.24,1.41-3.24,2.63,0,1.59,1.13,2.39,3.79,3.49,3.15,1.28,4.74,2.88,4.74,5.6,0,2.42-1.68,4.68-4.83,5.2v3.18h-1.93Z"/>
      </g>
      <g>
        <circle class="cls-6" cx="317.76" cy="66.98" r="16.65" transform="translate(200.99 370) rotate(-80.83)"/>
        <circle class="cls-8" cx="317.76" cy="66.98" r="14.58" transform="translate(71.51 278.68) rotate(-52.59)"/>
        <path class="cls-6" d="M316.87,77.9v-2.65c-1.52-.03-3.09-.5-4.01-1.15l.63-1.76c.94.63,2.31,1.13,3.77,1.13,1.86,0,3.12-1.07,3.12-2.57s-1.02-2.33-2.96-3.12c-2.67-1.05-4.32-2.25-4.32-4.53s1.55-3.83,3.96-4.22v-2.65h1.63v2.54c1.57.05,2.65.47,3.41.92l-.65,1.73c-.55-.31-1.63-.89-3.3-.89-2.02,0-2.78,1.21-2.78,2.25,0,1.36.97,2.04,3.25,2.99,2.7,1.1,4.06,2.46,4.06,4.8,0,2.07-1.44,4.01-4.14,4.45v2.72h-1.65Z"/>
      </g>
      <g>
        <path class="cls-10" d="M201.13,146.96l-.22,49.02-.05,14.01-.22,49.01c0,26.44-11.29,47.99-25.44,48.98-.34.02-.67.03-1.01.03h-82.93c6.98-.29,13.28-5.58,17.92-14.01,4.9-8.9,7.94-21.3,7.94-35.01l.05-97.53v-14.52c.01-27.07,17.42-49.01,38.91-49.01,10.6,0,20.2,5.35,27.23,14.01,7.2,8.9,11.67,21.3,11.67,35.01h6.13Z"/>
        <g>
          <path class="cls-1" d="M117.19,161.48v24.65s-.02,6.23-.02,6.23v21.68s-.01,13.94-.01,13.94v6.24s-.01,13.94-.01,13.94v7.72s-.01,3.14-.01,3.14c0,1.04-.02,2.07-.05,3.09-.09,2.64-.28,5.21-.6,7.71-.25,2.14-.59,4.22-.99,6.24-.54,2.69-1.2,5.27-1.99,7.71-.68,2.19-1.48,4.27-2.34,6.23-.61,1.41-1.27,2.76-1.97,4.02-.72,1.31-1.49,2.55-2.28,3.7-1.72,2.48-3.61,4.59-5.64,6.23-3.07,2.48-6.45,3.93-10,4.07-.2.01-.39.01-.59.01-14.61,0-26.45-21.95-26.45-49.01v-97.53h52.95Z"/>
          <g>
            <polygon class="cls-5" points="117.18 186.12 117.17 192.35 77.21 192.35 77.21 186.12 117.18 186.12"/>
            <rect class="cls-5" x="77.21" y="200.07" width="39.95" height="6.23"/>
            <rect class="cls-5" x="77.21" y="214.03" width="39.94" height="6.23"/>
            <polygon class="cls-5" points="117.16 227.97 117.14 234.2 77.21 234.2 77.21 227.97 117.16 227.97"/>
            <rect class="cls-5" x="77.21" y="241.92" width="39.93" height="6.23"/>
            <path class="cls-5" d="M117.13,255.87v3.14c0,1.04-.02,2.07-.05,3.09h-39.87v-6.23h39.92Z"/>
            <path class="cls-5" d="M116.48,269.81c-.25,2.14-.59,4.22-.99,6.24h-36.64c-.41-2.02-.75-4.1-.99-6.24h38.61Z"/>
            <path class="cls-5" d="M113.51,283.76c-.68,2.19-1.48,4.27-2.34,6.23h-28c-.87-1.95-1.65-4.04-2.33-6.23h32.68Z"/>
            <path class="cls-5" d="M106.91,297.71c-1.72,2.48-3.61,4.59-5.64,6.23h-8.19c-2.03-1.64-3.93-3.74-5.64-6.23h19.47Z"/>
          </g>
        </g>
        <g>
          <path class="cls-1" d="M278.94,146.96h-83.93c0-13.71-4.47-26.11-11.67-35.01-7.03-8.66-16.63-14.01-27.23-14.01h83.93c21.49,0,38.9,21.95,38.9,49.01Z"/>
          <g>
            <path class="cls-5" d="M256.47,106.8h-72.22c-2.96-2.63-6.24-4.73-9.73-6.24h72.24c3.48,1.51,6.75,3.61,9.71,6.24Z"/>
            <path class="cls-5" d="M267.05,120.74h-72.23c-1.1-2.2-2.34-4.29-3.71-6.23h72.23c1.37,1.94,2.6,4.02,3.71,6.23Z"/>
          </g>
        </g>
      </g>
      <path class="cls-5" d="M292.95,139.3v196.95h-120c-.82,0-1.64-.06-2.43-.17-.67-.09-1.32-.22-1.97-.37-7.85-1.97-13.67-9.08-13.67-17.53v-83.95c-15.96-10.42-26.49-28.43-26.49-48.92,0-28.33,20.17-51.96,46.95-57.3,2.35-.47,4.75-.79,7.19-.97,1.42-.11,2.84-.16,4.28-.16h93.73c6.86,0,12.42,5.56,12.42,12.42Z"/>
      <g>
        <rect class="cls-3" x="178.63" y="135.59" width="119.87" height="203.67" rx="4.29" ry="4.29"/>
        <rect class="cls-14" x="184.18" y="146.97" width="108.77" height="171.78"/>
        <circle class="cls-5" cx="238.01" cy="329" r="7.25"/>
        <rect class="cls-5" x="224.69" y="139.16" width="27.75" height="4.16" rx="1.61" ry="1.61"/>
      </g>
      <rect class="cls-5" x="275.57" y="179" width="6.72" height="107.71" rx="3.1" ry="3.1"/>
      <g>
        <polygon class="cls-7" points="262.24 253.02 214.89 253.02 219.88 211.42 257.25 211.42 262.24 253.02"/>
        <path class="cls-3" d="M247.9,211.42h-1.3c0-5.91-3.59-10.68-8.03-10.68s-8.03,4.78-8.03,10.68h-1.31c0-6.86,4.19-12.42,9.35-12.42s9.34,5.56,9.34,12.42Z"/>
        <polygon class="cls-9" points="214.89 253.02 238.56 247.83 262.24 253.02 214.89 253.02"/>
      </g>
      <g class="cls-15">
        <g>
          <rect class="cls-4" x="254.14" y="190.92" width="134.57" height="83.86" rx="7.91" ry="7.91"/>
          <rect class="cls-13" x="354.69" y="239.44" width="29.36" height="7.91"/>
          <rect class="cls-13" x="322.73" y="239.44" width="29.36" height="7.91"/>
          <rect class="cls-13" x="290.77" y="239.44" width="29.36" height="7.91"/>
          <rect class="cls-13" x="258.81" y="239.44" width="29.36" height="7.91"/>
          <rect class="cls-11" x="351.58" y="201.24" width="26.17" height="16.84" rx="3.54" ry="3.54"/>
        </g>
      </g>
      <path class="cls-3" d="M182.52,127.04c-2.44.18-4.84.5-7.19.97-4.11,2.99-6.78,7.84-6.78,13.3v194.4c.65.16,1.3.28,1.97.37,0-.07,0-.13,0-.2v-194.58c0-7.14,5.2-13.1,12.02-14.27Z"/>
      <g>
        <circle class="cls-10" cx="93.27" cy="108.22" r="17.66"/>
        <polygon class="cls-1" points="92.65 116.49 83.31 105.76 87.27 102.31 93.11 109.03 110.62 93.36 114.13 97.27 92.65 116.49"/>
      </g>
      <g>
        <circle class="cls-10" cx="93.27" cy="56.39" r="17.66"/>
        <polygon class="cls-1" points="92.65 64.66 83.31 53.93 87.27 50.48 93.11 57.19 110.62 41.53 114.13 45.44 92.65 64.66"/>
      </g>
    </g>
  </g>
</svg>